# xmcd
#
# Track frame offsets: 
#        150
#        12299
#        26352
#        45806
#        56211
#        72190
#        85577
#        97957
#        111146
#        126723
#        143076
#        156735
#        169804
#        183059
#
# Disc length: 2610 seconds
#
# Revision: 0
# Processed by: cddbd v1.5.2PL0 Copyright (c) Steve Scherf et al.
# Submitted via: ExactAudioCopy v1.3
#
DISCID=b40a300e
DTITLE=The Best of Billie Holiday - Billie Holiday
DYEAR=2017
DGENRE=
TTITLE0=My Man
TTITLE1=Night and Day
TTITLE2=Please don't talk about me when I am gone
TTITLE3=Please Kepp Me In Your Dreams
TTITLE4=Solitude
TTITLE5=Spreading Rhythm Around
TTITLE6=Strange Fruit
TTITLE7=Summertime
TTITLE8=Tenderly
TTITLE9=These Foolish Things
TTITLE10=What a Little Moon Light Can Do
TTITLE11=Yesterdays
TTITLE12=You're Gonna See a Lot of Me
TTITLE13=You're So Desirable
EXTD=
EXTT0=
EXTT1=
EXTT2=
EXTT3=
EXTT4=
EXTT5=
EXTT6=
EXTT7=
EXTT8=
EXTT9=
EXTT10=
EXTT11=
EXTT12=
EXTT13=
PLAYORDER=
